<svg xmlns="http://www.w3.org/2000/svg" width="494" height="279" viewBox="0 0 494 279" version="1.1"><path d="M 185.346 41.147 C 182.676 41.747, 179.590 43.583, 176.707 46.290 C 173.409 49.387, 171.754 52.001, 170.452 56.177 C 168.755 61.618, 168.755 62.092, 170.469 67.542 C 171.525 70.900, 173.616 74.628, 175.572 76.642 C 177.395 78.519, 180.472 80.717, 182.411 81.527 C 184.350 82.337, 188.215 83, 191 83 C 193.785 83, 197.589 82.363, 199.453 81.584 C 201.317 80.805, 204.236 78.836, 205.940 77.208 C 207.644 75.580, 209.896 71.829, 210.946 68.874 L 212.854 63.500 212.927 71.027 C 212.976 76.122, 213.503 79.273, 214.557 80.777 C 215.446 82.047, 217.165 83, 218.566 83 C 219.916 83, 221.803 82.092, 222.760 80.981 C 223.717 79.871, 224.725 76.653, 225 73.829 L 225.500 68.695 228.950 75.379 C 231.257 79.849, 233.138 82.247, 234.628 82.621 C 235.853 82.929, 237.787 82.885, 238.926 82.524 C 240.064 82.162, 241.290 80.692, 241.651 79.256 C 242.118 77.395, 241.544 75.289, 239.653 71.925 C 238.194 69.329, 237 66.668, 237 66.010 C 237 65.353, 237.888 63.686, 238.974 62.306 C 240.059 60.926, 241.229 58.297, 241.573 56.464 C 241.917 54.630, 241.674 51.541, 241.032 49.598 C 240.391 47.655, 238.512 44.926, 236.857 43.533 C 234.136 41.244, 233.002 41, 225.078 41 C 217.854 41, 216.019 41.322, 214.655 42.829 C 213.415 44.199, 212.992 46.645, 212.967 52.579 L 212.935 60.500 211.045 55 C 209.694 51.068, 207.931 48.441, 204.861 45.786 C 202.079 43.380, 198.866 41.708, 195.735 41.036 C 193.076 40.466, 190.586 40.048, 190.201 40.107 C 189.815 40.166, 187.631 40.634, 185.346 41.147 M 360.358 40.943 C 358.630 41.361, 355.653 42.670, 353.742 43.851 C 351.831 45.032, 349.045 47.845, 347.551 50.103 C 345.800 52.748, 344.636 56.124, 344.278 59.596 C 343.887 63.381, 344.225 66.301, 345.414 69.413 C 346.362 71.896, 349.020 75.607, 351.463 77.859 C 354.103 80.293, 357.253 82.145, 359.457 82.558 C 361.456 82.933, 365.518 83.039, 368.482 82.793 C 372.829 82.433, 374.729 81.644, 378.301 78.716 C 380.738 76.720, 383.541 73.379, 384.532 71.293 C 385.602 69.039, 386.323 65.268, 386.310 62 C 386.298 58.975, 385.612 54.925, 384.784 53 C 383.957 51.075, 381.989 48.221, 380.411 46.657 C 378.833 45.094, 376.407 43.240, 375.021 42.537 C 373.634 41.834, 370.475 41.017, 368 40.721 C 365.525 40.425, 362.086 40.525, 360.358 40.943 M 44.054 42.435 C 43.399 43.224, 43.007 45.361, 43.182 47.185 C 43.461 50.092, 43.962 50.614, 47.250 51.426 L 51 52.353 51 66.641 C 51 79.744, 51.160 81.016, 52.934 81.965 C 53.998 82.534, 55.773 83, 56.878 83 C 57.983 83, 59.587 82, 60.443 80.777 C 61.662 79.037, 62 75.676, 62 65.277 C 62 53.221, 62.163 52, 63.777 52 C 64.755 52, 66.555 51.299, 67.777 50.443 C 69.012 49.579, 70 47.832, 70 46.515 C 70 45.210, 69.293 43.436, 68.429 42.571 C 67.194 41.337, 64.541 41, 56.051 41 C 47.884 41, 44.954 41.350, 44.054 42.435 M 73.200 42.200 C 72.354 43.046, 72 48.784, 72 61.629 C 72 76.867, 72.258 80.115, 73.571 81.429 C 74.436 82.293, 76.210 83, 77.515 83 C 78.832 83, 80.579 82.012, 81.443 80.777 C 82.416 79.389, 83 76.388, 83 72.777 L 83 67 87.500 67 L 92 67 92 73.429 C 92 77.939, 92.469 80.326, 93.571 81.429 C 94.436 82.293, 96.204 83, 97.500 83 C 98.796 83, 100.564 82.293, 101.429 81.429 C 102.737 80.120, 103 76.933, 103 62.363 C 103 52.216, 102.565 44.056, 101.965 42.934 C 101.250 41.599, 99.867 41, 97.500 41 C 95.133 41, 93.750 41.599, 93.035 42.934 C 92.466 43.998, 92 47.373, 92 50.434 L 92 56 87.500 56 L 83 56 83 51.065 C 83 48.351, 82.561 44.976, 82.025 43.565 C 81.248 41.522, 80.374 41, 77.725 41 C 75.896 41, 73.860 41.540, 73.200 42.200 M 107.161 43.547 C 106.430 45.150, 106 52.191, 106 62.547 C 106 77.667, 106.162 79.162, 108 81 C 109.686 82.686, 111.333 83, 118.500 83 C 125.784 83, 127.298 82.702, 129.087 80.913 C 130.632 79.368, 131 78.138, 130.507 76.173 C 130.141 74.714, 129.315 73.185, 128.671 72.775 C 128.027 72.366, 125.138 72.024, 122.250 72.015 C 117.321 72.001, 117 71.847, 117 69.500 C 117 67.153, 117.321 66.999, 122.250 66.985 C 125.138 66.976, 128.027 66.634, 128.671 66.225 C 129.315 65.815, 130.141 64.286, 130.507 62.827 C 131 60.862, 130.632 59.632, 129.087 58.087 C 127.528 56.528, 125.736 56, 122 56 C 117.777 56, 117 55.709, 117 54.124 C 117 52.566, 117.957 52.168, 122.650 51.779 C 126.603 51.451, 128.705 50.756, 129.650 49.464 C 130.392 48.449, 131 46.836, 131 45.880 C 131 44.925, 130.293 43.436, 129.429 42.571 C 128.214 41.357, 125.636 41, 118.089 41 C 108.592 41, 108.289 41.071, 107.161 43.547 M 150.200 42.200 C 149.354 43.046, 149 48.787, 149 61.643 C 149 79.362, 149.064 79.931, 151.223 81.443 C 152.758 82.519, 155.781 83, 161 83 C 166.219 83, 169.242 82.519, 170.777 81.443 C 172 80.587, 173 78.857, 173 77.598 C 173 76.340, 172.177 74.565, 171.171 73.655 C 170.019 72.612, 167.615 72, 164.671 72 L 160 72 160 58.434 C 160 50.973, 159.534 43.998, 158.965 42.934 C 158.266 41.628, 156.869 41, 154.665 41 C 152.869 41, 150.860 41.540, 150.200 42.200 M 245.557 43.223 C 244.298 45.020, 244 48.656, 244 62.223 C 244 77.667, 244.159 79.159, 246 81 C 247.699 82.699, 249.333 83, 256.845 83 C 264.144 83, 265.979 82.680, 267.345 81.171 C 268.255 80.165, 269 78.156, 269 76.706 C 269 75.124, 268.227 73.657, 267.066 73.035 C 266.002 72.466, 262.852 72, 260.066 72 C 255.329 72, 255 71.838, 255 69.500 C 255 67.162, 255.329 67, 260.066 67 C 262.852 67, 266.002 66.534, 267.066 65.965 C 268.297 65.306, 269 63.873, 269 62.022 C 269 60.150, 268.208 58.559, 266.777 57.557 C 265.507 56.667, 262.476 56, 259.704 56 C 255.624 56, 254.906 55.722, 255.187 54.250 C 255.436 52.943, 256.811 52.370, 260.625 51.985 C 263.432 51.702, 266.465 50.859, 267.364 50.113 C 268.264 49.366, 269 47.550, 269 46.078 C 269 44.605, 268.460 42.860, 267.800 42.200 C 267.031 41.431, 263.101 41, 256.857 41 C 247.922 41, 246.984 41.184, 245.557 43.223 M 287.381 43.541 C 286.099 45.498, 285.956 46.607, 286.758 48.367 C 287.350 49.667, 289.244 51.067, 291.150 51.613 L 294.500 52.572 294.779 66.469 C 294.944 74.631, 295.510 80.909, 296.152 81.683 C 296.753 82.407, 298.514 83, 300.066 83 C 301.847 83, 303.460 82.181, 304.443 80.777 C 305.662 79.037, 306 75.676, 306 65.277 C 306 53.221, 306.163 52, 307.777 52 C 308.755 52, 310.555 51.299, 311.777 50.443 C 313.012 49.579, 314 47.832, 314 46.515 C 314 45.210, 313.293 43.436, 312.429 42.571 C 311.192 41.335, 308.532 41, 299.952 41 C 289.376 41, 288.996 41.077, 287.381 43.541 M 317.200 42.200 C 316.352 43.048, 316 48.903, 316 62.165 C 316 80.185, 316.083 80.974, 318.093 82.050 C 319.244 82.666, 321.285 82.894, 322.629 82.557 C 323.980 82.218, 325.501 80.811, 326.035 79.407 C 326.566 78.012, 327 74.811, 327 72.294 L 327 67.718 330.114 73.609 C 331.826 76.849, 333.921 80.287, 334.769 81.250 C 335.616 82.213, 337.253 82.993, 338.405 82.985 C 339.557 82.976, 340.988 82.639, 341.585 82.235 C 342.182 81.831, 343.162 80.602, 343.763 79.504 C 344.648 77.885, 344.274 76.417, 341.782 71.743 C 338.983 66.490, 338.847 65.824, 340.256 64.239 C 341.107 63.283, 342.368 60.587, 343.060 58.250 C 344.039 54.938, 344.057 53.133, 343.140 50.074 C 342.493 47.914, 340.587 44.989, 338.905 43.574 C 336.131 41.239, 335.036 41, 327.123 41 C 321.672 41, 317.950 41.450, 317.200 42.200 M 385.200 42.200 C 384.540 42.860, 384 44.256, 384 45.302 C 384 46.349, 385.326 51.096, 386.947 55.852 C 388.568 60.609, 391.257 68.292, 392.924 72.927 C 394.590 77.562, 396.527 81.717, 397.227 82.161 C 397.927 82.606, 399.480 82.976, 400.679 82.985 C 401.877 82.993, 403.496 82.361, 404.276 81.581 C 405.057 80.800, 406.625 77.538, 407.760 74.331 C 408.896 71.124, 411.439 63.964, 413.413 58.419 C 415.386 52.875, 417 47.193, 417 45.792 C 417 44.391, 416.354 42.709, 415.565 42.054 C 414.776 41.399, 412.655 41.007, 410.852 41.182 C 407.672 41.490, 407.479 41.778, 404.409 50.794 C 402.669 55.906, 400.996 60.337, 400.692 60.641 C 400.389 60.945, 399.248 58.304, 398.157 54.772 C 397.066 51.240, 395.482 46.697, 394.638 44.675 C 393.302 41.478, 392.666 41, 389.751 41 C 387.908 41, 385.860 41.540, 385.200 42.200 M 420.166 42.300 C 419.500 43.103, 419.054 49.884, 419 60.050 C 418.951 69.097, 418.931 77.255, 418.956 78.179 C 418.980 79.102, 419.707 80.564, 420.571 81.429 C 421.763 82.621, 424.281 83, 431 83 C 437.719 83, 440.237 82.621, 441.429 81.429 C 442.293 80.564, 443 78.796, 443 77.500 C 443 76.204, 442.293 74.436, 441.429 73.571 C 440.425 72.568, 438.076 72, 434.929 72 C 430.338 72, 430 71.829, 430 69.500 C 430 67.171, 430.338 67, 434.929 67 C 438.076 67, 440.425 66.432, 441.429 65.429 C 442.293 64.564, 443 62.790, 443 61.485 C 443 60.168, 442.012 58.421, 440.777 57.557 C 439.555 56.701, 436.630 56, 434.277 56 C 430.667 56, 430 55.688, 430 54 C 430 52.312, 430.667 52, 434.277 52 C 436.630 52, 439.555 51.299, 440.777 50.443 C 442 49.587, 443 47.983, 443 46.878 C 443 45.773, 442.534 43.998, 441.965 42.934 C 441.049 41.223, 439.795 41, 431.087 41 C 424.233 41, 420.917 41.395, 420.166 42.300 M 187.388 51.942 C 186.227 52.432, 184.314 54.057, 183.138 55.552 C 181.771 57.290, 181 59.699, 181 62.234 C 181 65.379, 181.642 66.797, 184.106 69.099 C 186.444 71.283, 188.184 72, 191.149 72 C 193.911 72, 195.854 71.289, 197.653 69.621 C 199.423 67.980, 200.375 65.854, 200.723 62.764 C 201.163 58.862, 200.860 57.882, 198.364 55.141 C 196.784 53.406, 194.155 51.783, 192.500 51.523 C 190.850 51.263, 188.550 51.452, 187.388 51.942 M 360.763 52.565 C 359.257 53.382, 357.344 55.367, 356.513 56.976 C 355.681 58.584, 355 61.032, 355 62.416 C 355 63.803, 356.392 66.516, 358.104 68.465 C 360.733 71.460, 361.850 72, 365.417 72 C 368.716 72, 370.203 71.398, 372.295 69.214 C 373.763 67.681, 375.246 65.020, 375.590 63.300 C 376.013 61.187, 375.650 59.217, 374.472 57.222 C 373.513 55.599, 371.483 53.535, 369.960 52.636 C 368.437 51.736, 366.361 51.018, 365.346 51.040 C 364.331 51.062, 362.268 51.748, 360.763 52.565 M 225 54.570 C 225 56.662, 225.418 57.080, 227.250 56.820 C 228.696 56.614, 229.614 55.696, 229.820 54.250 C 230.080 52.418, 229.662 52, 227.570 52 C 225.477 52, 225 52.477, 225 54.570 M 327 54.500 C 327 56.470, 327.507 57, 329.393 57 C 330.709 57, 331.993 56.438, 332.246 55.750 C 332.499 55.063, 332.509 53.938, 332.269 53.250 C 332.030 52.563, 330.746 52, 329.417 52 C 327.506 52, 327 52.523, 327 54.500 M 236.270 101.483 C 234.493 102.255, 232.132 104.375, 231.023 106.193 C 229.090 109.364, 229.007 111.157, 229.004 149.882 C 229 189.142, 229.058 190.358, 231.097 193.656 C 232.250 195.522, 234.477 197.713, 236.047 198.524 C 238.388 199.735, 244.649 200, 270.931 200 L 302.962 200 303.523 197.750 C 303.831 196.512, 303.864 179.750, 303.595 160.500 C 303.327 141.250, 302.822 121.742, 302.474 117.149 C 302.051 111.559, 302.239 107.838, 303.042 105.898 C 303.986 103.619, 303.977 102.677, 302.999 101.499 C 301.941 100.224, 297.101 100.006, 270.628 100.039 C 246.169 100.070, 238.808 100.379, 236.270 101.483 M 217.500 104.423 C 214.750 105.693, 210.700 108.173, 208.500 109.934 C 206.300 111.696, 202.824 115.666, 200.775 118.758 C 198.727 121.850, 196.191 127.107, 195.140 130.440 C 194.089 133.773, 192.931 138.193, 192.567 140.263 C 192.202 142.332, 190.732 146.382, 189.299 149.263 C 187.866 152.143, 185.412 156.381, 183.847 158.680 C 182.281 160.979, 181 163.933, 181 165.243 C 181 166.570, 182.218 168.733, 183.750 170.124 C 185.262 171.498, 187.738 173.148, 189.250 173.790 C 191.922 174.924, 192 175.183, 192 182.913 C 192 187.289, 192.419 191.971, 192.931 193.317 C 193.442 194.664, 195.249 196.753, 196.945 197.961 C 199.191 199.560, 202.062 200.310, 207.514 200.723 L 215 201.289 215 209.422 C 215 215.029, 215.465 218.219, 216.498 219.694 C 217.322 220.871, 220.135 222.658, 222.748 223.667 C 226.543 225.131, 230.319 225.500, 241.500 225.500 C 254.214 225.500, 255.943 225.282, 260.322 223.126 C 263.112 221.753, 265.521 219.760, 266.039 218.398 C 266.531 217.104, 266.609 213.447, 266.213 210.272 C 265.605 205.412, 265.176 204.500, 263.496 204.500 C 261.767 204.500, 261.460 205.271, 261.200 210.260 C 260.953 214.993, 260.486 216.290, 258.581 217.539 C 257.306 218.374, 252.698 219.464, 248.340 219.961 C 243.715 220.489, 237.501 220.499, 233.413 219.986 C 229.561 219.502, 225.254 218.667, 223.841 218.130 C 222.429 217.593, 220.986 216.407, 220.636 215.495 C 220.286 214.583, 220 210.299, 220 205.975 C 220 198.985, 219.754 197.941, 217.777 196.557 C 216.315 195.532, 213.314 195, 209 195 C 204.686 195, 201.685 194.468, 200.223 193.443 C 198.172 192.007, 198 191.094, 198 181.654 L 198 171.422 192.500 169 C 189.475 167.668, 187 166.098, 187 165.512 C 187 164.925, 187.621 163.557, 188.380 162.473 C 189.139 161.388, 191.390 157.480, 193.382 153.789 C 195.375 150.097, 197.487 144.697, 198.077 141.789 C 198.668 138.880, 200.323 133.351, 201.757 129.503 C 203.713 124.252, 205.667 121.203, 209.588 117.282 C 212.597 114.273, 217.183 111.009, 220.406 109.584 C 224.437 107.801, 226 106.566, 226 105.162 C 226 104.091, 225.288 102.941, 224.418 102.607 C 223.548 102.273, 222.761 102.026, 222.668 102.058 C 222.576 102.089, 220.250 103.154, 217.500 104.423 M 236.557 108.223 C 235.584 109.611, 235 112.612, 235 116.223 C 235 120.667, 235.462 122.462, 237 124 C 238.907 125.907, 240.334 126, 267.750 126.001 L 296.500 126.002 296.500 116.003 L 296.500 106.003 267.307 106.002 C 238.272 106, 238.105 106.012, 236.557 108.223 M 238.656 110.455 C 238.342 111.273, 238.773 112.630, 239.614 113.471 C 240.906 114.763, 245.048 114.998, 266.321 114.985 C 280.170 114.976, 292.107 114.585, 292.848 114.115 C 293.590 113.645, 294.034 112.414, 293.835 111.380 C 293.493 109.603, 291.988 109.485, 266.350 109.234 C 243.101 109.006, 239.145 109.181, 238.656 110.455 M 249.016 118.481 C 248.002 119.703, 248.002 120.297, 249.016 121.519 C 250.086 122.808, 253.551 122.997, 271.888 122.769 L 293.500 122.500 293.500 120 L 293.500 117.500 271.888 117.231 C 253.551 117.003, 250.086 117.192, 249.016 118.481 M 235 160.394 C 235 182.554, 235.320 190.920, 236.200 191.800 C 236.860 192.460, 237.760 193, 238.200 193 C 238.640 193, 239 179.102, 239 162.117 C 239 132.074, 238.946 131.219, 237 130.710 C 235.033 130.196, 235 130.680, 235 160.394 M 245 162.539 L 245 194.033 271.750 193.766 L 298.500 193.500 298.500 162.500 L 298.500 131.500 271.750 131.272 L 245 131.045 245 162.539 M 253.189 143.039 C 251.211 144.882, 251 146.070, 251 155.384 C 251 164.593, 251.224 165.893, 253.106 167.595 C 254.997 169.306, 256.889 169.500, 271.695 169.500 C 287.811 169.500, 288.220 169.447, 290.089 167.139 C 291.677 165.177, 292 163.138, 292 155.064 C 292 146.202, 291.797 145.158, 289.686 143.174 C 287.508 141.129, 286.422 141, 271.374 141 C 256.657 141, 255.202 141.163, 253.189 143.039 M 257 155.500 L 257 164.053 271.750 163.777 L 286.500 163.500 286.500 155.500 L 286.500 147.500 271.750 147.223 L 257 146.947 257 155.500" stroke="none" fill="#33114c" fill-rule="evenodd"/></svg>